<svg viewBox="0 0 200 200" fill="none" xmlns="http://www.w3.org/2000/svg">
  <rect width="200" height="200" fill="#faf5f8" rx="24" />
  <path d="M100 25 L25 50 L25 110 C25 155, 100 185, 100 185 C100 185, 175 155, 175 110 L175 50 Z" fill="#B067A1" fill-opacity="0.9" />
  <path d="M100 25 L25 50 L25 110 C25 155, 100 185, 100 185 L100 25 Z" fill="#F5C518" />
  <path d="M100 25 L175 50 L175 110 C175 155, 100 185, 100 185 L100 25 Z" fill="#B067A1" />
  <circle cx="100" cy="75" r="16" fill="white"/>
  <path d="M75 115 h50 M75 140 h50" stroke="white" stroke-width="9" stroke-linecap="round"/>
</svg>
